<svg width="200" height="200" xmlns="http://www.w3.org/2000/svg">
  <defs>
    <linearGradient id="skyGrad" x1="0%" y1="0%" x2="0%" y2="100%">
      <stop offset="0%" style="stop-color:#74b9ff;stop-opacity:1" />
      <stop offset="50%" style="stop-color:#0984e3;stop-opacity:1" />
      <stop offset="100%" style="stop-color:#2d3436;stop-opacity:1" />
    </linearGradient>
    <linearGradient id="mountainGrad" x1="0%" y1="0%" x2="0%" y2="100%">
      <stop offset="0%" style="stop-color:#636e72;stop-opacity:1" />
      <stop offset="100%" style="stop-color:#2d3436;stop-opacity:1" />
    </linearGradient>
  </defs>
  <!-- щнФц│ХуБоцгоуБошГМцЩп -->
  <rect width="200" height="200" fill="url(#skyGrad)"/>
  
  <!-- щБауБПуБох▒▒уАЕ -->
  <polygon points="0,120 40,80 80,100 120,70 160,90 200,85 200,200 0,200" fill="url(#mountainGrad)"/>
  
  <!-- цго -->
  <ellipse cx="30" cy="140" rx="15" ry="25" fill="#00b894"/>
  <ellipse cx="60" cy="135" rx="20" ry="30" fill="#00a085"/>
  <ellipse cx="100" cy="145" rx="18" ry="28" fill="#00b894"/>
  <ellipse cx="140" cy="140" rx="22" ry="32" fill="#00a085"/>
  <ellipse cx="170" cy="150" rx="16" ry="26" fill="#00b894"/>
  
  <!-- цЬиуБох╣╣ -->
  <rect x="25" y="155" width="10" height="45" fill="#8b4513"/>
  <rect x="52" y="150" width="12" height="50" fill="#8b4513"/>
  <rect x="92" y="158" width="11" height="42" fill="#8b4513"/>
  <rect x="132" y="152" width="13" height="48" fill="#8b4513"/>
  <rect x="162" y="162" width="10" height="38" fill="#8b4513"/>
  
  <!-- шНЙхЬ░ -->
  <ellipse cx="100" cy="190" rx="80" ry="10" fill="#00b894"/>
  
  <!-- щнФц│ХуБохЕЙ -->
  <circle cx="50" cy="60" r="3" fill="#74b9ff" opacity="0.8"/>
  <circle cx="120" cy="40" r="2" fill="#74b9ff" opacity="0.6"/>
  <circle cx="170" cy="55" r="2.5" fill="#74b9ff" opacity="0.7"/>
  <circle cx="30" cy="45" r="2" fill="#74b9ff" opacity="0.5"/>
  
  <!-- цШЯ -->
  <polygon points="80,30 82,36 88,36 83,40 85,46 80,42 75,46 77,40 72,36 78,36" fill="#fff"/>
  <polygon points="150,25 151,29 155,29 152,32 153,36 150,34 147,36 148,32 145,29 149,29" fill="#fff"/>
  
  <text x="100" y="175" text-anchor="middle" fill="#fff" font-family="Arial" font-size="12">щнФц│ХуБоцго</text>
  <text x="100" y="190" text-anchor="middle" fill="#74b9ff" font-family="Arial" font-size="10">ЁЯМ▓ чеЮчзШчЪДуБкшГМцЩп</text>
</svg>
